<svg width="512" height="512" viewBox="0 0 512 512" fill="none" xmlns="http://www.w3.org/2000/svg">
<rect width="512" height="512" fill="#0D1B2A" style="fill:#0D1B2A;fill:color(display-p3 0.0510 0.1059 0.1647);fill-opacity:1;"/>
<path d="M130.012 342.037C133.836 338.213 138.298 333.66 143.398 328.378C148.679 323.096 154.143 317.542 159.788 311.714C165.434 305.704 170.898 299.785 176.179 293.957C181.461 288.129 186.196 282.848 190.385 278.112C194.574 273.377 197.852 269.644 200.219 266.912C204.59 261.266 208.961 255.53 213.332 249.702C217.703 243.873 221.71 238.046 225.352 232.218C229.177 226.39 232.455 220.744 235.187 215.281C238.101 209.635 240.377 204.353 242.016 199.436C243.655 194.337 244.475 189.601 244.475 185.231C244.475 181.952 244.111 179.403 243.382 177.581C242.654 175.578 241.743 174.212 240.65 173.484C239.558 172.755 238.465 172.391 237.372 172.391C235.551 172.391 233.639 173.119 231.635 174.576C229.814 175.851 227.902 177.581 225.899 179.767C224.078 181.952 222.347 184.32 220.708 186.87C219.251 189.237 217.976 191.423 216.884 193.426C213.605 199.436 210.692 206.448 208.142 214.461C205.592 222.292 203.406 230.67 201.585 239.594C199.764 248.336 198.307 257.259 197.214 266.366C196.304 275.289 195.757 283.941 195.575 292.318C195.575 300.513 195.94 308.071 196.668 314.992C197.396 321.913 198.762 327.65 200.766 332.203C201.312 333.842 201.95 335.208 202.678 336.3C203.406 337.211 204.135 337.939 204.864 338.486C205.592 339.032 206.411 339.305 207.322 339.305C208.05 339.305 209.143 339.032 210.6 338.486C212.239 337.757 214.243 336.665 216.61 335.208C218.978 333.568 221.71 331.292 224.806 328.378C228.084 325.464 231.817 321.822 236.006 317.451C240.195 313.08 244.839 307.616 249.939 301.06C251.76 299.056 253.672 298.055 255.675 298.055C257.861 298.055 259.773 298.783 261.412 300.24C263.051 301.515 264.053 303.245 264.417 305.431C264.782 307.434 264.235 309.346 262.778 311.168C257.496 317.906 252.489 323.734 247.753 328.651C243.2 333.568 238.92 337.757 234.914 341.218C231.089 344.678 227.538 347.41 224.259 349.413C220.981 351.599 217.885 353.146 214.971 354.057C212.239 354.968 209.781 355.423 207.595 355.423C203.953 355.423 200.766 354.604 198.034 352.964C195.302 351.507 192.844 349.504 190.658 346.954C188.655 344.223 186.925 341.218 185.468 337.939C183.282 332.84 181.643 326.648 180.55 319.363C179.64 311.896 179.184 303.792 179.184 295.05C179.367 286.308 179.913 277.293 180.824 268.005C181.734 258.535 183.1 249.155 184.921 239.867C186.742 230.579 188.928 221.746 191.478 213.368C194.027 204.991 196.941 197.433 200.219 190.694C202.04 186.688 204.135 182.681 206.503 178.674C209.053 174.485 211.875 170.752 214.971 167.474C218.068 164.013 221.436 161.282 225.079 159.278C228.904 157.093 233.093 156 237.645 156C241.288 156 244.566 156.728 247.48 158.185C250.394 159.46 252.852 161.373 254.856 163.922C256.859 166.472 258.316 169.568 259.227 173.21C260.32 176.671 260.866 180.677 260.866 185.231C260.866 191.058 259.955 197.068 258.134 203.261C256.313 209.271 253.763 215.463 250.485 221.837C247.389 228.029 243.747 234.312 239.558 240.687C235.551 246.878 231.271 253.071 226.718 259.263C222.165 265.273 217.612 271.192 213.059 277.02C210.692 279.752 207.322 283.576 202.951 288.493C198.762 293.229 193.936 298.51 188.473 304.338C183.191 310.166 177.727 316.085 172.082 322.095C166.436 328.105 161.063 333.75 155.964 339.032C150.865 344.314 146.494 348.867 142.851 352.691C140.666 354.695 138.48 355.605 136.295 355.423C134.109 355.241 132.288 354.33 130.831 352.691C129.192 351.234 128.281 349.504 128.099 347.501C127.735 345.497 128.373 343.676 130.012 342.037ZM250.323 301.06C257.061 292.682 263.344 284.76 269.172 277.293C275.182 269.826 280.646 262.723 285.563 255.985C290.481 249.246 294.943 242.872 298.949 236.862C302.956 230.852 306.507 225.206 309.603 219.925C312.7 214.643 315.249 209.817 317.252 205.446C319.438 200.893 320.986 196.795 321.897 193.153C322.989 189.328 323.536 185.959 323.536 183.045C323.536 180.677 323.171 178.765 322.443 177.308C321.897 175.669 320.986 174.485 319.711 173.757C318.436 172.846 316.979 172.391 315.34 172.391C314.247 172.391 313.155 172.573 312.062 172.937C310.969 173.302 309.877 173.848 308.784 174.576C307.691 175.305 306.507 176.307 305.232 177.581C303.958 178.674 302.683 180.131 301.408 181.952C299.04 185.048 296.855 189.328 294.851 194.792C292.848 200.073 290.936 206.083 289.115 212.822C287.476 219.378 285.928 226.39 284.471 233.857C283.196 241.324 282.103 248.791 281.192 256.258C280.282 263.543 279.553 270.555 279.007 277.293C278.643 283.849 278.461 289.768 278.461 295.05C278.461 304.156 278.825 311.623 279.553 317.451C280.464 323.279 281.557 327.923 282.831 331.383C284.289 334.661 285.745 337.029 287.202 338.486C288.841 339.76 290.299 340.398 291.573 340.398C293.212 340.398 295.033 339.943 297.037 339.032C299.222 337.939 301.59 336.209 304.14 333.842C306.69 331.292 309.512 327.923 312.608 323.734C314.612 320.638 316.524 317.359 318.345 313.899C320.349 310.257 321.988 306.341 323.262 302.153C324.72 297.964 325.812 293.684 326.541 289.313C327.269 284.76 327.633 280.025 327.633 275.107C327.633 272.558 327.451 269.826 327.087 266.912C326.905 263.998 326.632 261.54 326.267 259.536C326.086 257.533 326.086 256.531 326.267 256.531C326.267 256.531 326.449 256.896 326.814 257.624C327.178 258.17 327.451 259.172 327.633 260.629C327.998 261.903 328.18 263.725 328.18 266.092C328.18 270.463 328.726 274.926 329.819 279.478C331.093 283.849 332.642 288.038 334.463 292.045C336.466 295.869 338.561 299.329 340.746 302.426C343.114 305.522 345.39 307.981 347.576 309.802C349.943 311.441 352.038 312.26 353.859 312.26C354.587 312.26 355.316 312.169 356.044 311.987C356.773 311.805 357.592 311.441 358.503 310.894C359.414 310.348 360.415 309.71 361.508 308.982C362.601 308.071 363.785 306.979 365.059 305.704C366.334 304.247 367.791 302.608 369.43 300.787C371.251 298.783 373.164 297.873 375.167 298.055C377.353 298.055 379.265 298.783 380.904 300.24C382.543 301.697 383.544 303.518 383.909 305.704C384.273 307.707 383.544 309.71 381.723 311.714C380.084 313.717 378.354 315.63 376.533 317.451C374.712 319.09 372.89 320.638 371.069 322.095C369.248 323.369 367.336 324.553 365.333 325.646C363.511 326.557 361.599 327.285 359.596 327.832C357.775 328.378 355.862 328.651 353.859 328.651C348.942 328.651 344.297 327.377 339.927 324.827C335.738 322.095 331.913 318.543 328.453 314.173C324.993 309.62 321.988 304.611 319.438 299.148C317.07 293.502 315.158 287.856 313.701 282.21C312.426 276.565 311.789 271.192 311.789 266.092C311.789 261.903 312.426 258.352 313.701 255.438C315.158 252.342 316.888 250.066 318.892 248.609C320.895 246.97 322.898 246.15 324.902 246.15C329.454 246.15 333.097 247.698 335.829 250.794C338.561 253.708 340.564 257.442 341.839 261.995C343.296 266.366 344.024 270.737 344.024 275.107C344.024 280.936 343.569 286.581 342.658 292.045C341.748 297.326 340.473 302.426 338.834 307.343C337.195 312.26 335.282 316.904 333.097 321.275C330.912 325.646 328.453 329.562 325.721 333.022C322.443 337.939 318.983 342.219 315.34 345.862C311.88 349.322 308.146 351.963 304.14 353.784C300.315 355.787 296.126 356.789 291.573 356.789C286.11 356.789 281.466 355.15 277.641 351.872C273.998 348.775 270.993 344.405 268.626 338.759C266.259 332.931 264.528 326.284 263.436 318.817C262.525 311.349 262.07 303.427 262.07 295.05C262.07 289.222 262.252 282.848 262.616 275.927C262.98 268.824 263.527 261.448 264.255 253.799C265.166 245.968 266.259 238.228 267.533 230.579C268.99 222.748 270.72 215.281 272.724 208.178C274.727 200.893 277.003 194.154 279.553 187.962C282.103 181.77 285.017 176.489 288.295 172.118C290.116 169.75 292.028 167.656 294.032 165.835C296.035 163.831 298.13 162.101 300.315 160.644C302.683 159.187 305.05 158.094 307.418 157.366C309.968 156.455 312.608 156 315.34 156C319.347 156 323.262 157.002 327.087 159.005C330.912 160.826 334.008 163.74 336.375 167.747C338.743 171.754 339.927 176.853 339.927 183.045C339.927 186.87 339.471 190.876 338.561 195.065C337.65 199.254 336.284 203.625 334.463 208.178C332.824 212.549 330.73 217.193 328.18 222.11C325.63 226.845 322.716 231.853 319.438 237.135C316.16 242.234 312.426 247.607 308.237 253.253C304.231 258.898 299.86 264.818 295.125 271.01C290.389 277.202 285.29 283.667 279.826 290.406C274.545 297.144 268.899 304.156 262.889 311.441C261.25 313.444 259.338 314.446 257.152 314.446C255.149 314.446 253.328 313.808 251.689 312.533C249.868 311.076 248.775 309.346 248.411 307.343C248.046 305.158 248.684 303.063 250.323 301.06Z" fill="#F5F5F2" style="fill:#F5F5F2;fill:color(display-p3 0.9608 0.9608 0.9490);fill-opacity:1;"/>
</svg>
